<svg xmlns="http://www.w3.org/2000/svg" viewBox="0 0 64 64" role="img" aria-label="Paloma Albieri">
  <rect width="64" height="64" fill="#171410" />
  <circle cx="47" cy="18" r="5" fill="#FF397C" />
  <path
    d="M17 50V14h17.2c8.1 0 13.5 5 13.5 12.2 0 7.3-5.4 12.4-13.5 12.4H26v11.4H17Zm9-19h7.4c3.2 0 5.3-1.9 5.3-4.8s-2.1-4.8-5.3-4.8H26V31Z"
    fill="#F6F0E7"
  />
  <path
    d="M39 50 46.6 31h5.7L60 50h-6.2l-1.1-3.3h-6.6L45 50h-6Zm8.4-7.7h4l-2-6.2-2 6.2Z"
    fill="#F6F0E7"
  />
  <rect x="16" y="54" width="34" height="3" rx="1.5" fill="#FF397C" />
</svg>
